<?xml version="1.0" encoding="UTF-8"?><svg id="Layer_2" xmlns="http://www.w3.org/2000/svg" width="128.2688" height="20.5294" xmlns:xlink="http://www.w3.org/1999/xlink" viewBox="0 0 128.2688 20.5294"><defs><style>.cls-1{fill:#fff;}.cls-2{fill:url(#linear-gradient);}</style><linearGradient id="linear-gradient" x1="0" y1="10.2647" x2="128.2688" y2="10.2647" gradientUnits="userSpaceOnUse"><stop offset="0" stop-color="#8e2de2"/><stop offset="1" stop-color="#4a00e0"/></linearGradient></defs><g id="Layer_1-2"><rect class="cls-2" x="0" y="0" width="128.2688" height="20.5294" rx="8.413" ry="8.413"/><g><path class="cls-1" d="m17.6427,14.2374c-.6514-.1709-1.1797-.3984-1.5869-.6836l.793-1.7812c.3828.252.8262.4551,1.3301.6094.5049.1553,1.001.2324,1.4893.2324.9268,0,1.3906-.2324,1.3906-.6953,0-.2441-.1328-.4248-.3965-.543-.2646-.1182-.6895-.2422-1.2754-.3721-.6426-.1387-1.1797-.2871-1.6104-.4453-.4316-.1592-.8018-.4131-1.1104-.7627-.3096-.3496-.4639-.8213-.4639-1.415,0-.5205.1426-.9902.4277-1.4092.2842-.4189.709-.751,1.2744-.9951s1.2588-.3662,2.0801-.3662c.5615,0,1.1143.0635,1.6602.1895.5439.126,1.0244.3115,1.4395.5557l-.7441,1.793c-.8135-.4395-1.6025-.6582-2.3672-.6582-.4805,0-.8301.0713-1.0498.2129-.2188.1426-.3291.3281-.3291.5557s.1299.3984.3906.5117c.2598.1143.6787.2324,1.2568.3545.6504.1377,1.1895.2861,1.6162.4453.4268.1582.7969.4102,1.1104.7559s.4697.8154.4697,1.4092c0,.5127-.1426.9766-.4268,1.3916-.2852.4141-.7119.7461-1.2812.9941s-1.2607.3721-2.0742.3721c-.6914,0-1.3623-.0859-2.0127-.2559Z"/><path class="cls-1" d="m31.1602,11.6017h-4.8066c.0977.3418.2861.6035.5674.7871.2803.1826.6318.2744,1.0547.2744.3174,0,.5918-.0449.8242-.1348.2314-.0889.4648-.2354.7012-.4385l1.2197,1.2686c-.6426.7158-1.582,1.0732-2.8184,1.0732-.7725,0-1.4512-.1455-2.0371-.4385s-1.0391-.7002-1.3604-1.2207-.4824-1.1104-.4824-1.7686c0-.6514.1572-1.2344.4697-1.751.3135-.5166.7461-.9209,1.2998-1.2139.5527-.293,1.1748-.4395,1.8662-.4395.6592,0,1.2568.1367,1.7939.4082.5371.2734.9619.668,1.2754,1.1836.3125.5166.4697,1.1289.4697,1.8369,0,.0156-.0127.207-.0371.5732Zm-4.3857-2.0498c-.2402.2031-.3926.4795-.458.8301h2.709c-.0654-.3506-.2178-.627-.458-.8301s-.5391-.3047-.8965-.3047c-.3584,0-.6572.1016-.8965.3047Z"/><path class="cls-1" d="m38.9933,11.6017h-4.8066c.0977.3418.2861.6035.5674.7871.2803.1826.6318.2744,1.0547.2744.3174,0,.5918-.0449.8242-.1348.2314-.0889.4648-.2354.7012-.4385l1.2197,1.2686c-.6426.7158-1.582,1.0732-2.8184,1.0732-.7725,0-1.4512-.1455-2.0371-.4385s-1.0391-.7002-1.3604-1.2207-.4824-1.1104-.4824-1.7686c0-.6514.1572-1.2344.4697-1.751.3135-.5166.7461-.9209,1.2998-1.2139.5527-.293,1.1748-.4395,1.8662-.4395.6592,0,1.2568.1367,1.7939.4082.5371.2734.9619.668,1.2754,1.1836.3125.5166.4697,1.1289.4697,1.8369,0,.0156-.0127.207-.0371.5732Zm-4.3857-2.0498c-.2402.2031-.3926.4795-.458.8301h2.709c-.0654-.3506-.2178-.627-.458-.8301s-.5391-.3047-.8965-.3047c-.3584,0-.6572.1016-.8965.3047Z"/><path class="cls-1" d="m51.4757,14.3224l-.0244-4.5264-2.1963,3.6846h-1.0742l-2.1836-3.5625v4.4043h-2.2324V5.7814h1.9883l3.002,4.9297,2.9277-4.9297h1.9883l.0244,8.541h-2.2197Z"/><path class="cls-1" d="m62.2608,7.7091l-2.8545,6.8818c-.334.8135-.7412,1.3848-1.2207,1.7139-.4795.3301-1.0654.4941-1.7568.4941-.3496,0-.7012-.0547-1.0557-.1641-.3535-.1104-.6406-.2549-.8594-.4336l.8047-1.623c.1299.1221.2871.2178.4697.2871.1836.0693.3682.1035.5557.1035.2188,0,.4004-.0449.543-.1338.1416-.0898.2617-.2324.3594-.4277l-2.8301-6.6982h2.3789l1.623,4.0391,1.6348-4.0391h2.208Z"/><path class="cls-1" d="m68.336,7.6974h-2.623v-1.916h7.6504v1.916h-2.6113v6.625h-2.416v-6.625Z"/><path class="cls-1" d="m74.1563,6.6232c-.2607-.2354-.3906-.5283-.3906-.8779s.1299-.6426.3906-.8789c.2598-.2354.6016-.3535,1.0244-.3535s.7646.1123,1.0244.3359c.2607.2236.3906.5098.3906.8594,0,.3662-.1299.6699-.3906.9092-.2598.2402-.6016.3604-1.0244.3604s-.7646-.1182-1.0244-.3545Zm-.1348,1.0859h2.3184v6.6133h-2.3184v-6.6133Z"/><path class="cls-1" d="m79.2559,13.9933c-.5771-.293-1.0264-.7002-1.3477-1.2207s-.4824-1.1104-.4824-1.7686c0-.6592.1611-1.2471.4824-1.7637.3213-.5156.7705-.9189,1.3477-1.208.5781-.2881,1.2324-.4326,1.9648-.4326.748,0,1.3945.1611,1.9395.4814.5449.3223.9316.7676,1.1592,1.3369l-1.793.915c-.3018-.5938-.7402-.8906-1.3184-.8906-.4141,0-.7578.1377-1.0303.4141-.2725.2773-.4092.6592-.4092,1.1475,0,.4961.1367.8838.4092,1.165.2725.2803.6162.4209,1.0303.4209.5781,0,1.0166-.2969,1.3184-.8906l1.793.915c-.2275.5693-.6143,1.0146-1.1592,1.3359s-1.1914.4814-1.9395.4814c-.7324,0-1.3867-.1455-1.9648-.4385Z"/><path class="cls-1" d="m88.1759,12.004l-.6836.6953v1.623h-2.3184V5.2697h2.3184v4.7461l2.3672-2.3066h2.7451l-2.7451,2.8311,2.9766,3.7822h-2.8057l-1.8545-2.3184Z"/><path class="cls-1" d="m99.9727,11.6017h-4.8066c.0977.3418.2861.6035.5674.7871.2803.1826.6318.2744,1.0547.2744.3174,0,.5918-.0449.8242-.1348.2314-.0889.4648-.2354.7012-.4385l1.2197,1.2686c-.6426.7158-1.582,1.0732-2.8184,1.0732-.7725,0-1.4512-.1455-2.0371-.4385s-1.0391-.7002-1.3604-1.2207-.4824-1.1104-.4824-1.7686c0-.6514.1572-1.2344.4697-1.751.3135-.5166.7461-.9209,1.2998-1.2139.5527-.293,1.1748-.4395,1.8662-.4395.6592,0,1.2568.1367,1.7939.4082.5371.2734.9619.668,1.2754,1.1836.3125.5166.4697,1.1289.4697,1.8369,0,.0156-.0127.207-.0371.5732Zm-4.3857-2.0498c-.2402.2031-.3926.4795-.458.8301h2.709c-.0654-.3506-.2178-.627-.458-.8301s-.5391-.3047-.8965-.3047c-.3584,0-.6572.1016-.8965.3047Z"/><path class="cls-1" d="m105.6466,14.0538c-.1953.1221-.4336.2158-.7139.2803-.2803.0654-.5801.0977-.8965.0977-.8623,0-1.5254-.2109-1.9893-.6338s-.6953-1.0537-.6953-1.8916v-2.2207h-.9639v-1.7324h.9639v-1.7197h2.3184v1.7197h1.5127v1.7324h-1.5127v2.1963c0,.2363.0625.4209.1885.5557.126.1338.2949.2012.5068.2012.2686,0,.5039-.0693.708-.208l.5732,1.623Z"/><path class="cls-1" d="m107.3058,14.2433c-.5371-.126-.9678-.291-1.293-.4941l.6953-1.5859c.3008.1865.6592.335,1.0732.4453.415.1094.8262.1641,1.2324.1641.374,0,.6406-.0381.7998-.1152.1582-.0771.2373-.1895.2373-.3359s-.0957-.25-.2861-.3115c-.1914-.0605-.4941-.1191-.9092-.1768-.5293-.0645-.9785-.1504-1.3486-.2559s-.6895-.3008-.957-.5859c-.2686-.2842-.4033-.6826-.4033-1.1953,0-.4229.126-.7998.3789-1.1289.252-.3291.6201-.5898,1.1035-.7803.4844-.1914,1.0635-.2871,1.7393-.2871.4795,0,.9551.0488,1.4268.1465s.8662.2363,1.1836.415l-.6953,1.5732c-.5859-.3252-1.2197-.4873-1.9033-.4873-.3662,0-.6348.042-.8047.1279-.1709.085-.2568.1973-.2568.335,0,.1553.0938.2627.2812.3232.1865.0615.4961.125.9268.1895.5449.0811.9961.1748,1.3545.2803.3574.1064.6689.2998.9336.5801.2637.2803.3965.6729.3965,1.1777,0,.4141-.127.7861-.3789,1.1162-.252.3291-.624.5879-1.1162.7744-.4922.1875-1.084.2803-1.7754.2803-.5527,0-1.0977-.0625-1.6348-.1885Z"/></g></g></svg>